<?xml version="1.0" encoding="UTF-8"?>
<svg xmlns="http://www.w3.org/2000/svg" xmlns:xlink="http://www.w3.org/1999/xlink" width="314pt" height="314pt" viewBox="0 0 314 314" version="1.1">
<defs>
<clipPath id="clip1">
  <path d="M 0.0507812 0.101562 L 314 0.101562 L 314 314 L 0.0507812 314 Z M 0.0507812 0.101562 "/>
</clipPath>
</defs>
<g id="surface1">
<rect x="0" y="0" width="314" height="314" style="fill:rgb(100%,100%,100%);fill-opacity:1;stroke:none;"/>
<g clip-path="url(#clip1)" clip-rule="nonzero">
<path style=" stroke:none;fill-rule:evenodd;fill:rgb(80%,40%,60.392157%);fill-opacity:1;" d="M 157.199219 0.101562 C 243.988281 0.101562 314.351562 70.460938 314.351562 157.300781 C 314.351562 244.089844 243.988281 314.449219 157.199219 314.449219 C 70.363281 314.449219 0 244.089844 0 157.300781 C 0 70.460938 70.363281 0.101562 157.199219 0.101562 Z M 157.199219 0.101562 "/>
</g>
<path style=" stroke:none;fill-rule:nonzero;fill:rgb(100%,100%,100%);fill-opacity:1;" d="M 125.949219 209.632812 C 128.253906 218.097656 128.003906 225.960938 125.601562 233.121094 C 125.347656 233.921875 125.050781 234.722656 124.75 235.476562 C 124.449219 236.277344 124.097656 237.027344 123.746094 237.777344 C 121.894531 241.535156 119.492188 245.089844 116.484375 248.34375 C 107.320312 258.3125 94.601562 262.066406 89.09375 258.914062 C 83.183594 255.507812 86.1875 241.433594 96.753906 230.265625 C 108.121094 218.199219 124.546875 210.484375 124.546875 210.484375 L 124.5 210.433594 C 125 210.183594 125.449219 209.882812 125.949219 209.632812 Z M 255.757812 67.355469 C 248.644531 39.460938 202.371094 30.296875 158.550781 45.824219 C 132.511719 55.085938 104.265625 69.660156 83.984375 88.640625 C 59.84375 111.175781 55.988281 130.859375 57.589844 139.070312 C 63.199219 168.015625 102.863281 186.949219 119.191406 200.96875 L 119.191406 201.070312 C 114.382812 203.425781 79.175781 221.253906 70.914062 239.480469 C 62.199219 258.710938 72.316406 272.484375 78.976562 274.335938 C 99.660156 280.097656 120.84375 269.730469 132.261719 252.753906 C 143.277344 236.328125 142.328125 215.144531 137.570312 204.574219 C 144.179688 202.871094 151.839844 202.070312 161.605469 203.222656 C 189.203125 206.429688 194.609375 223.65625 193.558594 230.867188 C 192.507812 238.078125 186.746094 242.035156 184.792969 243.238281 C 182.890625 244.4375 182.289062 244.839844 182.441406 245.742188 C 182.691406 246.992188 183.59375 246.941406 185.246094 246.691406 C 187.5 246.292969 199.71875 240.832031 200.21875 227.511719 C 200.921875 210.636719 184.695312 191.753906 156.046875 192.257812 C 144.28125 192.457031 136.816406 193.558594 131.460938 195.5625 C 131.109375 195.109375 130.65625 194.660156 130.257812 194.210938 C 112.527344 175.328125 79.828125 161.957031 81.179688 136.566406 C 81.679688 127.300781 84.886719 102.964844 144.128906 73.46875 C 192.605469 49.328125 231.417969 55.988281 238.128906 70.710938 C 247.746094 91.746094 217.394531 130.910156 167.015625 136.566406 C 147.835938 138.722656 137.71875 131.257812 135.214844 128.503906 C 132.5625 125.550781 132.210938 125.449219 131.207031 126 C 129.605469 126.902344 130.609375 129.457031 131.207031 131.007812 C 132.710938 134.914062 138.871094 141.824219 149.386719 145.28125 C 158.652344 148.335938 181.1875 149.988281 208.433594 139.472656 C 238.929688 127.652344 262.769531 94.800781 255.757812 67.355469 Z M 255.757812 67.355469 "/>
</g>
</svg>
